<svg xmlns="http://www.w3.org/2000/svg" xmlns:xlink="http://www.w3.org/1999/xlink" viewBox="0 0 51 65" fill="#fff" fill-rule="evenodd" stroke="#000" stroke-linecap="round" stroke-linejoin="round"><use xlink:href="#C" x=".5" y=".5"/><defs><filter id="A" x="-6%" y="-4.6875%" width="116%" height="112.5%"><feGaussianBlur in="SourceAlpha" stdDeviation="1"/><feOffset dx="2" dy="2" result="B"/><feFlood flood-color="#000" flood-opacity=".2"/><feComposite in2="B" operator="in" result="C"/><feMerge><feMergeNode in="C"/><feMergeNode in="SourceGraphic"/></feMerge></filter><filter id="B" x="-27.5%" y="-32.5%" width="160%" height="160%"><feGaussianBlur in="SourceAlpha" stdDeviation="2"/><feOffset dx="1" dy="-1" result="B"/><feFlood flood-color="#000" flood-opacity=".2"/><feComposite in2="B" operator="in" result="C"/><feMerge><feMergeNode in="C"/><feMergeNode in="SourceGraphic"/></feMerge></filter></defs><symbol id="C" overflow="visible"><path d="M50 20L30 0H5a4.99 4.99 0 0 0-5 5v54a4.99 4.99 0 0 0 5 5h40a4.99 4.99 0 0 0 5-5z" fill="#f44336" stroke="none" filter="url(#A)"/><defs/><path d="M36.135 36.179c-.064-.006-1.593-.146-3.94-.146l-2.208.042c-4.636-3.479-8.433-6.96-10.466-8.912a6.92 6.92 0 0 0 .075-.515c.268-2.83-.03-4.741-.883-5.679-.559-.613-1.379-.817-2.234-.583-.531.139-1.514.654-1.829 1.703-.348 1.159.211 2.566 1.679 4.198a61.39 61.39 0 0 0 1.427 1.431c-.588 2.805-2.128 8.858-2.875 11.764-1.755.938-3.217 2.067-4.349 3.363l-.074.085-.048.102c-.117.245-.674 1.516-.255 2.537.191.464.549.803 1.035.981l.13.035a1.69 1.69 0 0 0 .324.026c.905 0 3.14-.476 4.339-4.893l.29-1.119c4.184-2.034 9.415-2.69 13.206-2.873 1.95 1.446 3.891 2.774 5.771 3.951l.061.036a4.53 4.53 0 0 0 1.881.455h0c1.38 0 2.388-.847 2.763-2.323l.019-.101c.105-.843-.107-1.604-.612-2.198-1.065-1.252-3.048-1.361-3.226-1.367zm-24.458 8.804c-.008-.01-.012-.019-.017-.03-.09-.217.018-.743.177-1.128.683-.763 1.502-1.464 2.447-2.094-.921 2.98-2.259 3.238-2.607 3.252zm5.846-19.801h0c-1.414-1.574-1.393-2.354-1.317-2.617.125-.439.688-.605.693-.606.284-.077.456-.062.609.106.347.381.645 1.531.527 3.639l-.513-.523zm-.731 13.403l.024-.093-.003.001 2.316-9.441.021.02.002-.012a120.11 120.11 0 0 0 8.298 7.125l-.039.002.058.044c-3.285.277-7.208.925-10.677 2.355zm21.572.91c-.25.919-.731 1.045-1.172 1.045h0c-.512 0-1.005-.213-1.117-.265-1.28-.802-2.59-1.677-3.912-2.612h.032c2.266 0 3.775.138 3.834.142.379.014 1.576.191 2.092.798.202.238.28.522.243.893z" stroke="none"/><g transform="matrix(-1 0 0 -1 50 20)"><path d="M20 20L0 0h15a4.99 4.99 0 0 1 5 5z" fill="#ef9a9a" stroke="none" filter="url(#B)"/><defs/></g></symbol></svg>