<svg xmlns="http://www.w3.org/2000/svg" xmlns:xlink="http://www.w3.org/1999/xlink" viewBox="0 0 99 119" fill="#fff" fill-rule="evenodd" stroke="#000" stroke-linecap="round" stroke-linejoin="round"><use xlink:href="#A" x=".5" y=".5"/><symbol id="A" overflow="visible"><g stroke="none" fill-rule="nonzero"><path d="M91.729 15.597C80.841-.086 59.163-4.682 43.58 5.208L16.108 22.79C8.616 27.485 3.422 35.177 1.923 43.868.624 51.16 1.723 58.652 5.22 65.145 2.822 68.742 1.224 72.738.525 76.933c-1.598 8.891.499 18.081 5.694 25.373 10.989 15.684 32.566 20.279 48.15 10.389L81.84 95.214c7.492-4.695 12.687-12.387 14.185-21.078 1.299-7.292.2-14.785-3.297-21.278 2.398-3.596 3.996-7.592 4.695-11.788 1.698-8.991-.4-18.181-5.694-25.473" fill="#ff3e00"/><path d="M40.883 103.805c-8.891 2.298-18.181-1.199-23.376-8.691-3.197-4.395-4.395-9.89-3.496-15.284l.599-2.597.499-1.598 1.399.999c3.297 2.397 6.893 4.196 10.789 5.394l.999.3-.1.999c-.1 1.399.3 2.897 1.099 4.096 1.598 2.298 4.395 3.396 7.093 2.697.599-.2 1.199-.4 1.698-.699l27.371-17.482c1.399-.899 2.298-2.198 2.597-3.796s-.1-3.297-.999-4.595c-1.598-2.298-4.395-3.297-7.093-2.597-.599.2-1.199.4-1.698.699l-10.489 6.693c-1.698 1.099-3.596 1.898-5.594 2.397-8.891 2.298-18.181-1.199-23.376-8.691-3.097-4.395-4.395-9.89-3.396-15.284.899-5.195 4.096-9.89 8.591-12.687l27.471-17.482c1.698-1.099 3.596-1.898 5.594-2.497 8.891-2.298 18.181 1.199 23.376 8.691 3.197 4.395 4.395 9.89 3.496 15.284-.2.899-.4 1.698-.699 2.597l-.499 1.598-1.399-.999c-3.297-2.397-6.893-4.196-10.789-5.394l-.999-.3.1-.999c.1-1.399-.3-2.897-1.099-4.096-1.598-2.298-4.395-3.297-7.093-2.597-.599.2-1.199.4-1.698.699L32.392 46.066c-1.399.899-2.298 2.198-2.597 3.796s.1 3.297.999 4.595c1.598 2.298 4.395 3.297 7.093 2.597.599-.2 1.199-.4 1.698-.699l10.489-6.693c1.698-1.099 3.596-1.898 5.594-2.497 8.891-2.298 18.181 1.199 23.376 8.691 3.197 4.395 4.395 9.89 3.496 15.284-.899 5.195-4.096 9.89-8.591 12.687l-27.471 17.482c-1.698 1.099-3.596 1.898-5.594 2.497"/></g></symbol></svg>